<svg width="137" height="24" viewBox="0 0 137 24" fill="none" xmlns="http://www.w3.org/2000/svg">
<path d="M49.8054 20.1825C48.8598 20.5013 48.2358 20.579 47.4926 20.579C45.9563 20.579 45.1049 19.9718 45.1049 18.3971C45.1049 16.7559 46.1865 16.207 48.3107 16.207C48.8293 16.207 49.3395 16.2819 49.578 16.365V17.5405C49.578 18.8074 49.6473 19.6391 49.8054 20.1825ZM55.2657 22.0621C54.1315 20.3405 53.8348 19.3259 53.8348 17.1551V12.7471C53.8348 10.374 53.5574 9.51738 52.9307 8.65242C52.0572 7.42705 50.6013 6.89476 47.9252 6.89476C46.0312 6.89476 44.1926 7.09991 42.4122 7.55457L43.0556 10.6873C44.2591 10.5182 45.5209 10.374 46.4111 10.374C49.2535 10.374 49.578 10.7843 49.578 12.9162V13.7119C48.9457 13.5428 48.2358 13.4208 47.4122 13.4208C43.1333 13.4208 40.8732 15.5139 40.8732 18.9793C40.8732 22.2285 43.2886 24 46.2309 24C47.329 24 48.4771 23.7976 49.3867 23.4261C49.9357 23.1877 50.1742 23.0463 50.8841 22.5861C51.3112 23.2071 52.1681 23.842 52.5175 23.9612L55.2657 22.0621ZM97.592 20.1825C96.6408 20.5013 96.0279 20.579 95.2792 20.579C93.7373 20.579 92.8749 19.9718 92.8749 18.3971C92.8749 16.7559 93.9703 16.207 96.1 16.207C96.6186 16.207 97.1316 16.2819 97.3646 16.365V17.5405C97.3646 18.8074 97.4311 19.6391 97.592 20.1825ZM103.058 22.0621C101.915 20.3405 101.624 19.3259 101.624 17.1551V12.7471C101.624 10.374 101.341 9.51738 100.709 8.65242C99.8465 7.42705 98.3879 6.89476 95.7035 6.89476C93.8122 6.89476 91.9625 7.09991 90.1822 7.55457L90.8172 10.6873C92.0235 10.5182 93.2881 10.374 94.2032 10.374C97.029 10.374 97.3646 10.7843 97.3646 12.9162V13.7119C96.7323 13.5428 96.0279 13.4208 95.1877 13.4208C90.9032 13.4208 88.6348 15.5139 88.6348 18.9793C88.6348 22.2285 91.0557 24 94.0119 24C95.1239 24 96.2609 23.7976 97.1621 23.4261C97.7195 23.1877 97.9497 23.0463 98.6596 22.5861C99.0922 23.2071 99.9491 23.842 100.301 23.9612L103.058 22.0621ZM136.374 23.6313C136.374 23.6313 134.028 18.6328 133.454 17.4961C132.808 16.2153 132.209 15.3309 130.889 15.0121V14.94C131.774 14.7709 132.478 14.2359 133.249 12.6002C133.978 11.0061 134.194 10.6624 134.624 10.2825C135.046 9.90551 135.623 10.0413 135.623 10.0413L135.839 7.09437C135.226 7.0112 134.547 7.00843 133.845 7.04724C132.68 7.11655 132.079 7.452 131.505 8.02864C131.055 8.46944 130.75 9.12926 130.373 9.8861C129.974 10.7123 129.658 11.3776 129.242 12.2176C128.829 13.0798 128.634 13.4679 127.522 13.4679H126.799V0.413071H122.514V23.6313H126.799V16.9555L127.384 16.9444C128.612 16.9444 128.829 17.2522 129.477 18.5468C130.237 20.091 131.693 23.6313 131.693 23.6313H136.374ZM15.6765 23.6313H20.621L13.1419 0.801197C12.3543 0.537827 11.3809 0.37426 10.341 0.37426C9.20679 0.37426 8.80191 0.523964 7.91451 0.801197L0 23.6313H4.74483C4.74483 23.6313 5.38541 21.6297 6.13971 19.1484H14.3371C15.0692 21.6269 15.6765 23.6313 15.6765 23.6313ZM7.34325 15.3199C7.34325 15.3199 8.71317 10.7372 8.92671 10.0247C9.47024 8.17835 10.2966 5.24523 10.2966 5.24523H10.4325C10.4325 5.24523 11.1979 8.2837 11.6971 9.99145C11.8856 10.6707 13.1946 15.3199 13.1946 15.3199H7.34325ZM62.5646 12.7083C61.0532 12.7083 59.8247 13.942 59.8247 15.4529C59.8247 16.9749 61.0532 18.2003 62.5646 18.2003C64.0787 18.2003 65.3017 16.9749 65.3017 15.4529C65.3017 13.942 64.0787 12.7083 62.5646 12.7083ZM26.4917 0.413071H22.1961V23.6285H26.4917V0.413071ZM111.835 10.5847C114.209 10.6346 114.503 11.1253 114.503 13.1159V23.6313H118.759V12.7471C118.759 10.374 118.482 9.51738 117.85 8.65242C116.976 7.42705 115.26 6.89476 112.356 6.89476C109.483 6.89476 107.653 7.19972 105.298 7.90112V23.6313H109.6V10.7843C110.728 10.6208 110.928 10.5847 111.835 10.5847ZM37.1156 0C34.4312 0 32.9697 0.532286 32.1101 1.75488C31.4778 2.62262 31.1977 3.49867 31.1977 5.87732V7.90112H29.0652V11.3721H31.1977V23.6313H35.4572L35.4461 11.3721H39.6918V7.90112H35.4461L35.4572 6.04089C35.4572 3.91175 35.7817 3.49867 38.6269 3.49867C38.9347 3.49867 39.2814 3.5153 39.6502 3.54303L40.3213 0.20792C39.2703 0.0693035 38.1943 0 37.1156 0ZM71.2916 0.216238C72.7531 0.130295 76.0198 0.00831413 78.0691 0.00831413C78.4435 0.00831413 78.8317 0.0110817 79.22 0.0304871C83.2493 0.0304871 85.5594 2.96361 85.5594 6.40684C85.5594 8.74945 84.4862 10.3047 81.9709 11.2307C84.9299 11.8849 86.4801 14.1943 86.4801 17.0193C86.4801 19.093 85.8949 20.7397 84.8217 21.8625C83.4296 23.2321 81.322 24 78.5156 24C76.0198 24 72.8862 23.9224 71.2916 23.8281V0.216238ZM78.0691 4.01987C77.3592 4.01987 76.4801 4.03373 75.6094 4.06422V9.63936H78.0719C79.0481 9.63936 79.8329 9.36767 80.3681 8.84371C80.8783 8.35023 81.1445 7.65161 81.1445 6.82268C81.1445 5.04008 80.1795 4.03095 78.3853 4.01987H78.0691ZM78.1579 19.9968H78.3437C80.5816 19.9968 81.9515 18.8074 81.9682 16.4121C81.946 15.5527 81.616 14.7598 81.0253 14.186C80.3792 13.5372 79.464 13.199 78.3908 13.199H75.6094V19.9718C76.3942 19.9884 77.2594 19.9912 78.1579 19.9968Z" fill="#EE2A23"/>
</svg>
