<svg width="89" height="24" viewBox="0 0 89 24" fill="none" xmlns="http://www.w3.org/2000/svg">
<path fill-rule="evenodd" clip-rule="evenodd" d="M0 10.6648H14.5298V8.17584H0V10.6648ZM75.5204 16.7689L75.3927 16.8966C75.3835 15.4882 75.3742 14.0804 75.3742 12.6633H73.0953V21.9469C74.8549 20.2577 76.614 18.5771 78.3644 16.8873V21.3747H80.6427C80.652 18.2766 80.6613 15.1795 80.6613 12.0911C80.6427 12.0818 80.634 12.0726 80.6155 12.0726C78.9202 13.644 77.2156 15.2067 75.5204 16.7689ZM33.3802 13.7171C32.2773 12.3 29.5789 12.6267 27.0818 12.6448V21.3655H29.3782V19.122C30.2444 19.1307 31.2562 19.1946 31.9402 18.9949C33.3802 18.5586 34.5376 16.9331 33.9725 14.898C33.8573 14.4683 33.6557 14.0665 33.3802 13.7171ZM31.1744 17.1142C30.5635 17.1235 29.9525 17.1327 29.3329 17.1327V14.6253C30.3355 14.6073 31.4384 14.4617 31.7575 15.1522C32.1131 15.888 31.8033 16.9233 31.1738 17.1142H31.1744ZM37.7558 17.8778H40.6904V15.8973H37.7831C37.7738 15.4789 37.7645 15.0518 37.7645 14.6346H40.9555V12.672H35.4851V21.3927H41.064V19.3037H37.764V17.8773H37.7553L37.7558 17.8778ZM51.7565 19.3397H49.6598C49.6511 17.1142 49.6418 14.8888 49.6418 12.672H47.3629V19.3217C46.6522 19.3309 45.9502 19.3397 45.2395 19.3397V12.672H42.942C42.9513 15.5608 42.9605 18.4587 42.9605 21.3475C43.0789 21.4473 43.5169 21.3927 43.7258 21.3927H54.0262C54.0355 18.486 54.0447 15.5793 54.0447 12.672H51.7473V19.3397H51.7565ZM58.4744 17.8778H61.4095V15.8973H58.4744V14.6253H61.6467V12.6633H56.1775C56.1867 15.57 56.196 18.4767 56.196 21.384H61.7564V19.2949H58.4744V17.8773V17.8778ZM68.6744 15.8062H65.958V12.6633H63.6611V21.384H65.958V17.8958H68.6744V21.384H70.9533V12.6633H68.6744V15.8062ZM85.0549 19.2944V17.8773H87.99V15.8973H85.0822C85.0729 15.4789 85.0636 15.0518 85.0636 14.6346H88.254V12.672H82.7853V21.3927H88.3636V19.3037H85.0549V19.2944ZM0 15.8242H14.5298V13.3173H0.018C0.018 14.1529 0.00927273 14.9886 0 15.8242Z" fill="#B92135"/>
<path fill-rule="evenodd" clip-rule="evenodd" d="M44.4551 2.70709H46.7067V5.85H49.3958V2.70709H51.6475V11.364H49.3958V7.89382H46.7067V11.364H44.4551V2.70709ZM53.6618 2.72509H55.8949V5.90509H57.1893C57.8165 4.84583 58.4425 3.78583 59.0673 2.72509H61.6009C60.7805 4.13345 59.9695 5.54127 59.1491 6.95836C60.006 8.43 60.8536 9.89291 61.7105 11.364H59.1949C58.5202 10.2196 57.8547 9.066 57.18 7.92109H55.8856C55.8769 9.066 55.8676 10.2196 55.8676 11.364H53.6618V2.72509ZM38.8947 1.91673C37.3636 5.05964 35.832 8.21182 34.3009 11.3547H36.7527C36.9164 11.0007 37.0904 10.6462 37.2546 10.2829C38.3296 10.2742 39.4145 10.2649 40.4902 10.2649C40.6631 10.6282 40.8365 10.9915 41.0193 11.3547H43.4891C41.9575 8.21182 40.4264 5.06891 38.8947 1.91673ZM39.7975 8.39345H38.0291C38.3116 7.70345 38.5942 7.01291 38.8855 6.32236C39.0496 6.44073 39.6878 8.06673 39.8062 8.37545C39.7975 8.37545 39.7975 8.38473 39.7975 8.39345ZM33.8182 7.56709C33.2253 5.87727 31.6211 5.79545 29.2876 5.82273V4.68709H33.2891V2.70709H27.0725V11.364C29.5609 11.3733 32.3864 11.6913 33.4347 10.2556C33.6355 9.98291 33.7996 9.62891 33.8907 9.27491C34.0544 8.73873 33.9725 7.98491 33.8176 7.56709H33.8182ZM29.2964 9.37473V7.67618C30.3633 7.65764 31.6118 7.48527 31.7945 8.37545C32.0313 9.62018 30.3447 9.39273 29.2964 9.37473ZM11.5309 0C11.9226 0.163636 12.2695 0.690545 12.5607 0.981273L14.8582 3.27C17.784 6.168 20.7098 9.066 23.6269 11.9727C19.6162 15.9878 15.6055 19.9942 11.5942 24.0093L9.7991 22.2196C8.13055 20.5664 6.46255 18.9038 4.78528 17.2505H8.15837L11.5675 20.6482H11.6127C14.4933 17.7595 17.3738 14.8795 20.2544 11.9907C17.3553 9.11127 14.466 6.23182 11.5675 3.36109H11.5216C10.3915 4.49673 9.26128 5.63182 8.13055 6.75873H4.78528C6.73637 4.81473 8.68691 2.87945 10.6282 0.935455C10.9293 0.627273 11.2298 0.308727 11.5309 0Z" fill="#3C2B6F"/>
</svg>
