<svg width="211" height="24" viewBox="0 0 211 24" fill="none" xmlns="http://www.w3.org/2000/svg">
<path fill-rule="evenodd" clip-rule="evenodd" d="M11.9232 23.447C9.6616 23.447 7.45079 22.7726 5.57038 21.5091C3.68998 20.2456 2.22446 18.4498 1.35919 16.3487C0.493912 14.2477 0.267746 11.9359 0.709294 9.70558C1.15084 7.47529 2.24027 5.42676 3.83979 3.81908C5.43931 2.2114 7.47707 1.1168 9.69533 0.673701C11.9136 0.230606 14.2127 0.458921 16.3019 1.32978C18.3911 2.20064 20.1766 3.67492 21.4324 5.56616C22.6882 7.45739 23.3581 9.68063 23.3572 11.9547C23.3602 13.4651 23.0664 14.9612 22.4928 16.3572C21.9192 17.7531 21.077 19.0214 20.0146 20.0892C18.9522 21.157 17.6905 22.0033 16.302 22.5795C14.9134 23.1558 13.4254 23.4505 11.9232 23.447Z" fill="#FFEC00"/>
<path fill-rule="evenodd" clip-rule="evenodd" d="M11.9232 23.447C9.6616 23.447 7.45079 22.7726 5.57038 21.5091C3.68998 20.2456 2.22446 18.4498 1.35919 16.3487C0.493912 14.2477 0.267746 11.9359 0.709294 9.70558C1.15084 7.47529 2.24027 5.42676 3.83979 3.81908C5.43931 2.2114 7.47707 1.1168 9.69533 0.673701C11.9136 0.230606 14.2127 0.458921 16.3019 1.32978C18.3911 2.20064 20.1766 3.67492 21.4324 5.56616C22.6882 7.45739 23.3581 9.68063 23.3572 11.9547C23.3602 13.4651 23.0664 14.9612 22.4928 16.3572C21.9192 17.7531 21.077 19.0214 20.0146 20.0892C18.9522 21.157 17.6905 22.0033 16.302 22.5795C14.9134 23.1558 13.4254 23.4505 11.9232 23.447Z" fill="#FFEC00"/>
<path d="M15.494 0.548943C14.3711 0.177666 13.1953 -0.00611169 12.0133 0.00492464H11.9277C8.76425 0.00492464 5.73041 1.26848 3.49354 3.51765C1.25667 5.76681 0 8.81735 0 11.9981C0 15.1789 1.25667 18.2295 3.49354 20.4786C5.73041 22.7278 8.76425 23.9914 11.9277 23.9914H12.0133C13.2 23.9698 14.3754 23.7555 15.494 23.3567C17.905 22.591 20.0106 21.0726 21.5052 19.0219C22.9998 16.9713 23.8055 14.4951 23.8055 11.9528C23.8055 9.41047 22.9998 6.93432 21.5052 4.88369C20.0106 2.83306 17.905 1.31467 15.494 0.548943ZM15.494 22.9124C14.37 23.2783 13.1948 23.4605 12.0133 23.4519H11.9277C8.89519 23.4519 5.98691 22.2406 3.84262 20.0845C1.69834 17.9285 0.493699 15.0042 0.493699 11.9551C0.493699 8.90592 1.69834 5.98168 3.84262 3.82562C5.98691 1.66955 8.89519 0.458269 11.9277 0.458269H12.0133C13.2003 0.476417 14.3763 0.690853 15.494 1.09296C17.7816 1.84544 19.7741 3.30566 21.1869 5.26501C22.5997 7.22435 23.3604 9.58257 23.3604 12.0027C23.3604 14.4228 22.5997 16.781 21.1869 18.7403C19.7741 20.6997 17.7816 22.1599 15.494 22.9124Z" fill="#1A1A18"/>
<path d="M19.8721 6.29243C20.1533 7.01559 20.3059 7.78284 20.3229 8.55915C20.3229 11.8776 17.0181 13.2241 15.679 13.1379H15.4987C15.3273 13.1379 15.2326 13.0518 15.2326 12.9611C15.2326 12.6891 15.3228 12.5078 15.4987 12.5078C15.5467 12.4584 15.6106 12.4279 15.679 12.4216C16.0397 12.4216 16.1299 12.5078 16.4816 12.5078C16.8332 12.5078 16.9324 12.2358 17.1082 11.8731C17.2032 11.7629 17.2752 11.6348 17.3201 11.4962C17.365 11.3576 17.3819 11.2114 17.3697 11.0662C17.3697 10.3499 16.6529 8.91276 16.3012 7.56633C16.3012 7.92447 16.3012 8.72689 15.9495 8.72689C15.8569 8.72955 15.7655 8.70586 15.6857 8.65854C15.606 8.61122 15.5411 8.5422 15.4987 8.45943C15.3273 8.19196 15.147 7.83381 14.9711 7.55274C15.0141 7.90958 15.0141 8.27032 14.9711 8.62716C14.9711 8.98077 14.8765 9.25278 14.7006 9.25278C14.5248 9.25278 14.2498 8.98077 14.2498 8.34609C14.2498 7.71141 14.3354 7.2626 14.3354 6.18817C14.3472 5.43684 14.1313 4.6997 13.7166 4.0746C13.3019 3.44951 12.7079 2.96601 12.0135 2.68834C11.6666 2.58162 11.3074 2.52069 10.9449 2.50702C7.82041 2.50702 7.45972 5.3767 7.28839 5.46283C7.11706 5.54897 6.9277 4.9324 5.93579 4.9324C4.77707 4.9324 3.52367 6.46016 3.08182 7.36232C2.31974 8.79631 1.92024 10.3968 1.91858 12.0227C1.9317 14.6787 2.99272 17.2209 4.86858 19.091C6.74444 20.961 9.28177 22.0059 11.9233 21.9963H12.009C13.2056 21.9938 14.3894 21.7487 15.4896 21.2754C17.3596 20.5676 18.9697 19.302 20.1043 17.6483C21.2389 15.9946 21.8437 14.0317 21.8378 12.0227C21.8329 9.9288 21.1771 7.88882 19.9622 6.18817L19.8721 6.29243ZM12.0135 11.5013C11.2563 10.5602 10.8468 9.38433 10.8547 8.17382C10.8547 7.55274 11.0396 7.45753 11.2154 7.45753C11.5761 7.45753 11.752 7.99702 12.0135 8.7133C12.0783 8.97776 12.2016 9.22412 12.3742 9.4341C12.6447 10.0642 12.825 10.4224 13.0865 11.0525C13.0264 11.5074 13.0571 11.9698 13.1767 12.4126C12.7722 12.1291 12.3824 11.825 12.009 11.5013H12.0135ZM15.4942 17.694C15.2188 17.6882 14.9473 17.6278 14.6952 17.5163C14.4431 17.4049 14.2152 17.2447 14.0247 17.0447C13.8342 16.8447 13.6848 16.609 13.5849 16.3509C13.485 16.0928 13.4367 15.8175 13.4427 15.5407C13.4673 15.0546 13.6232 14.5844 13.8936 14.1806C14.3444 14.8062 14.9666 15.2596 15.4942 14.8062L15.5843 14.7156C16.0352 14.2622 15.6745 13.6411 15.4942 13.4598C15.7701 13.4538 16.0445 13.5025 16.3017 13.6031C16.5589 13.7038 16.7939 13.8544 16.9932 14.0464C17.1924 14.2383 17.3522 14.4679 17.4632 14.722C17.5742 14.9761 17.6344 15.2496 17.6403 15.527C17.6368 16.0995 17.41 16.6478 17.0086 17.0539C16.6073 17.46 16.0635 17.6915 15.4942 17.6986V17.694Z" fill="#1A1A18"/>
<path d="M53.1863 19.4077L55.5128 12.1361L58.2766 3.32758H55.5128H36.1301L31.0353 19.4077H39.3447L42.8299 8.09222H48.4522L44.8859 19.4077H53.1863Z" fill="#1A1A18"/>
<path d="M74.35 14.0174C74.5304 13.6592 75.3329 11.1477 74.084 9.53379C73.3717 8.54097 72.0326 7.91535 69.6159 7.91535C67.923 7.8529 66.2576 8.35847 64.8819 9.35244C64.5164 9.61042 64.186 9.91522 63.899 10.2591L64.6158 8.19642H57.7401L55.5309 15.1961L52.7626 24H60.0396L62.0053 17.9796C62.3615 18.5191 62.9837 19.3396 64.8638 19.598C65.2473 19.6696 65.6373 19.6984 66.0271 19.6842C71.0272 19.6842 73.1733 16.7193 74.066 14.8334C74.1883 14.5719 74.2835 14.2985 74.35 14.0174ZM66.7575 14.0174C66.5771 14.5568 66.1307 15.8307 64.8819 16.1708C64.6592 16.2839 64.4144 16.3458 64.165 16.3521C62.3615 16.3521 62.8124 14.6475 63.0964 13.8315C63.3669 13.2013 63.7186 11.9501 64.8999 11.5874C65.1704 11.5874 65.3508 11.5013 65.6213 11.5013C67.4924 11.5013 66.9739 13.2014 66.7755 14.0174H66.7575Z" fill="#1A1A18"/>
<path d="M189.564 8.17834H188.315H182.242L180.989 12.136H178.396L179.65 8.17834H172.238L169.293 17.3404L168.667 19.4077H169.293H176.079L177.323 15.3638H179.916L178.667 19.4077H185.989L188.315 12.136L189.564 8.17834Z" fill="#1A1A18"/>
<path d="M210.642 8.17833H202.247L196.53 12.671L199.569 3.23688H192.152L188.315 15.4636L187.062 19.4077H188.315H194.389L196.174 13.9313L198.591 19.4077H207.247L203.852 13.1198L210.642 8.17833Z" fill="#1A1A18"/>
<path d="M169.826 12.5758C169.916 12.2222 169.916 11.9547 170.006 11.6691C170.075 11.2916 170.045 10.9026 169.919 10.5403C169.793 10.1779 169.576 9.85454 169.289 9.60183C168.387 8.61354 166.34 7.89728 161.962 7.89728H160.267C158.617 7.98425 156.976 8.19335 155.357 8.52289L154.374 11.6691C156.146 11.1377 157.978 10.833 159.825 10.7624H160.276C163.045 10.8485 163.311 11.5648 163.225 12.1224C163.23 12.1713 163.224 12.2206 163.207 12.2669C163.191 12.3131 163.165 12.3552 163.13 12.3899C162.213 12.2752 161.29 12.2147 160.366 12.2086H160.276C154.74 12.2086 152.418 14.0219 151.435 15.6223C151.278 15.9665 151.159 16.3267 151.079 16.6967C150.998 16.9895 150.988 17.2974 151.05 17.5947C151.112 17.892 151.244 18.1701 151.435 18.4058C152.147 19.2082 153.757 19.6615 155.722 19.6615C157.306 19.692 158.872 19.3225 160.276 18.5871C160.727 18.2244 161.079 17.9524 161.345 17.7756L160.813 19.3895H167.688L169.298 14.0945L169.826 12.5758ZM162.418 14.8425C162.203 15.4153 161.829 15.9141 161.34 16.2796C161.002 16.4695 160.643 16.6215 160.272 16.7329C160.01 16.8041 159.74 16.8331 159.469 16.8191C158.486 16.8191 157.954 16.5561 158.04 16.0167V15.7447C158.171 15.4605 158.37 15.2136 158.62 15.0261C158.869 14.8385 159.161 14.7163 159.469 14.6702C159.735 14.6702 159.92 14.5796 160.272 14.5796C160.773 14.4946 161.283 14.4641 161.791 14.4889H162.508L162.418 14.8425Z" fill="#1A1A18"/>
<path d="M151.782 13.0291C152.009 12.1454 151.881 11.2074 151.426 10.4179C150.709 9.05783 148.747 7.99246 144.73 7.99246C143.952 7.99945 143.174 8.06005 142.404 8.17381C141.245 8.44128 140.357 8.98077 139.099 9.88292C139.279 8.62716 140.618 7.54819 141.777 7.09938C141.966 6.9865 142.18 6.92406 142.399 6.91804C143.517 6.63258 144.653 6.42206 145.799 6.28788C146.854 6.21039 147.899 6.02971 148.919 5.7484L149.009 5.57162L150.812 0C150.542 0 150.271 0.0952122 150.01 0.0952122C148.756 0.272016 147.508 0.453355 146.169 0.634693C144.887 0.835582 143.628 1.1667 142.413 1.62298C142.237 1.62298 142.147 1.71365 141.962 1.71365C140.469 2.39477 139.109 3.33729 137.945 4.49719C136.526 6.15787 135.38 8.03566 134.55 10.0597C133.828 11.4748 133.316 12.9884 133.03 14.5524C132.94 14.7292 131.511 19.6661 140.443 19.6661C141.097 19.6823 141.753 19.6535 142.404 19.5799C148.477 19.1266 150.619 16.1663 151.421 14.1036C151.584 13.7612 151.705 13.4004 151.782 13.0291ZM143.901 13.6593C143.635 14.4662 143.274 15.8126 142.381 16.2615C142.108 16.4182 141.792 16.4819 141.48 16.4428C140.05 16.4428 140.406 14.915 140.853 13.5686C140.946 13.1243 141.129 12.704 141.391 12.3336C141.652 11.9633 141.986 11.6507 142.372 11.4152C142.595 11.3019 142.84 11.24 143.089 11.2339C144.64 11.2293 144.279 12.5758 143.901 13.6593Z" fill="#1A1A18"/>
<path d="M127.584 7.91089C125.903 7.85732 124.251 8.35541 122.877 9.32986C122.53 9.61031 122.202 9.91318 121.894 10.2366L122.606 8.17384H115.699L112.218 19.3125L110.699 23.9865H118.111L120.005 17.9661C120.361 18.5055 121.078 19.3261 122.863 19.5845C123.275 19.6593 123.694 19.6882 124.112 19.6706C129.919 19.6706 131.971 15.5407 132.417 14.0129C132.846 12.4035 133.919 7.91089 127.584 7.91089ZM124.721 14.0175C124.545 14.6476 124.099 15.8988 122.85 16.1708C122.626 16.2818 122.382 16.3436 122.133 16.3522C120.329 16.3522 120.78 14.6476 121.06 13.8316C121.236 13.2014 121.772 12.0182 122.863 11.6827C123.119 11.5785 123.39 11.5172 123.666 11.5014C125.442 11.5014 124.991 13.206 124.721 14.0175Z" fill="#1A1A18"/>
<path d="M112.218 15.8127C112.831 15.0069 113.289 14.0938 113.571 13.1198C113.798 12.416 113.789 11.6565 113.544 10.9586C113.3 10.2606 112.834 9.66281 112.218 9.25734C111.055 8.44586 109.003 7.89731 105.703 7.89731C105.075 7.87841 104.447 7.90721 103.823 7.98345C97.6642 8.43679 95.5181 11.039 94.7156 12.6529C94.6516 12.9624 94.5611 13.2658 94.445 13.5596C94.2692 14.2804 93.8183 15.985 94.7156 17.3314C95.6173 18.5917 97.5741 19.6661 101.929 19.6661C102.556 19.6806 103.183 19.6518 103.805 19.58C108.471 19.2218 110.875 17.5173 112.218 15.8127ZM105.518 13.546C105.252 14.3574 104.896 15.6993 103.823 16.2388C103.536 16.3539 103.23 16.4153 102.921 16.4202C101.231 16.4202 101.938 14.5388 102.304 13.546C102.377 13.0838 102.551 12.6435 102.812 12.2558C103.073 11.8682 103.415 11.5426 103.814 11.3019C104.07 11.2004 104.341 11.1407 104.617 11.1251C106.235 11.1478 105.784 12.671 105.518 13.5641V13.546Z" fill="#1A1A18"/>
<path d="M95.3424 8.17834H94.7157H86.4062L81.1401 14.8244L83.5523 8.17834H76.9426L74.0841 17.1591L73.3717 19.4077H74.0841H82.123L87.6642 12.5758L85.1618 19.4077H91.767L94.7157 9.97812L95.3424 8.17834Z" fill="#1A1A18"/>
</svg>
