<svg width="72" height="72" viewBox="0 0 72 72" fill="none" xmlns="http://www.w3.org/2000/svg">
<rect width="72" height="72" rx="36" fill="#F4F5F7"/>
<g clip-path="url(#clip0)">
<path d="M35.5148 25.6233C27.7957 25.6233 25.3492 32.9627 25.3492 32.9627C25.3492 32.9627 34.1649 26.1298 40.2388 30.7695L36.3161 33.0049L45.7224 36.2526L47.9999 26.8042L44.0351 28.7447C44.0357 28.7447 41.6734 25.6233 35.5148 25.6233Z" fill="#068CC9"/>
<path d="M31.7611 41.2304L35.6838 38.9951L26.2775 35.7473L24 45.1958L27.9648 43.2553C27.9648 43.2553 30.327 46.3767 36.4851 46.3767C44.2042 46.3767 46.6507 39.0372 46.6507 39.0372C46.6507 39.0372 37.835 45.8702 31.7611 41.2304Z" fill="#C95C06"/>
</g>
<defs>
<clipPath id="clip0">
<rect width="23.9999" height="24" fill="white" transform="translate(24 24)"/>
</clipPath>
</defs>
</svg>
