<svg width="72" height="72" viewBox="0 0 72 72" fill="none" xmlns="http://www.w3.org/2000/svg">
<rect width="72" height="72" rx="36" fill="#F4F5F7"/>
<path d="M47.2461 28.0064C47.245 26.9444 46.3845 26.0841 45.3225 26.0828H26.6697C25.6077 26.0841 24.7472 26.9444 24.7461 28.0064V29.9143H47.2461V28.0064ZM26.8722 29.276C26.1713 29.276 25.6026 28.7075 25.6026 28.0064C25.6026 27.3051 26.1713 26.7366 26.8726 26.7366C27.5735 26.7366 28.1422 27.3051 28.1422 28.0064C28.1413 28.7073 27.5733 29.2755 26.8722 29.276ZM29.8122 29.276C29.1109 29.276 28.5426 28.7075 28.5426 28.0062C28.543 27.3049 29.1115 26.7366 29.8126 26.7366C30.5139 26.7368 31.0822 27.3051 31.0822 28.0064C31.0815 28.7075 30.5132 29.2755 29.8122 29.276ZM32.7521 29.276C32.0508 29.276 31.4823 28.7077 31.4823 28.0064C31.4823 27.3051 32.0508 26.7366 32.7521 26.7366C33.4534 26.7366 34.0217 27.3051 34.0217 28.0064C34.0212 28.7073 33.453 29.2755 32.7521 29.276Z" fill="#C95C06"/>
<path d="M29.8123 27.5529C29.5616 27.5529 29.3585 27.756 29.3585 28.0064C29.3585 28.2569 29.5616 28.46 29.8123 28.46C30.0629 28.46 30.2658 28.2569 30.2658 28.0064C30.2657 27.756 30.0629 27.5532 29.8123 27.5529Z" fill="#C95C06"/>
<path d="M26.6697 45.7445H45.3225C46.3845 45.7434 47.245 44.8827 47.2461 43.8209V30.7304H24.7461V43.8209C24.7472 44.8827 25.6077 45.7434 26.6697 45.7445ZM37.9678 33.6149H44.3797C44.605 33.6149 44.7877 33.7977 44.7877 34.0229C44.7877 34.2484 44.605 34.4309 44.3797 34.4309H37.9678C37.7422 34.4309 37.5597 34.2484 37.5597 34.0229C37.5597 33.7977 37.7422 33.6149 37.9678 33.6149ZM37.9678 36.5649H44.3797C44.605 36.5649 44.7877 36.7478 44.7877 36.9729C44.7877 37.1984 44.605 37.3809 44.3797 37.3809H37.9678C37.7422 37.3809 37.5597 37.1984 37.5597 36.9729C37.5597 36.7478 37.7422 36.5649 37.9678 36.5649ZM37.9678 39.5149H44.3797C44.605 39.5149 44.7877 39.6978 44.7877 39.9229C44.7877 40.1485 44.605 40.331 44.3797 40.331H37.9678C37.7422 40.331 37.5597 40.1485 37.5597 39.9229C37.5597 39.6978 37.7422 39.5149 37.9678 39.5149ZM37.9678 42.4649H44.3797C44.605 42.4649 44.7877 42.6478 44.7877 42.873C44.7877 43.0985 44.605 43.281 44.3797 43.281H37.9678C37.7422 43.281 37.5597 43.0985 37.5597 42.873C37.5597 42.6478 37.7422 42.4649 37.9678 42.4649ZM27.0777 34.0229C27.0777 33.7977 27.2602 33.6149 27.4857 33.6149H34.8886C35.1141 33.6149 35.2966 33.7977 35.2966 34.0229V42.873C35.2966 43.0985 35.1141 43.281 34.8886 43.281H27.4857C27.2602 43.281 27.0777 43.0985 27.0777 42.873V34.0229Z" fill="#068CC9"/>
<path d="M32.7521 27.5529C32.5016 27.5527 32.2983 27.7558 32.2983 28.0064C32.2983 28.2569 32.5014 28.46 32.7521 28.46C33.0026 28.46 33.2057 28.2569 33.2057 28.0064C33.2055 27.756 33.0026 27.5532 32.7521 27.5529Z" fill="#C95C06"/>
<path d="M26.8723 27.5529C26.622 27.5529 26.4187 27.756 26.4187 28.0064C26.4187 28.2569 26.622 28.46 26.8723 28.46C27.1231 28.46 27.3262 28.2569 27.3262 28.0064C27.3258 27.756 27.1229 27.5532 26.8723 27.5529Z" fill="#C95C06"/>
<path d="M27.8938 34.4309H34.4806V42.4649H27.8938V34.4309Z" fill="#068CC9"/>
</svg>
