<svg width="72" height="72" viewBox="0 0 72 72" fill="none" xmlns="http://www.w3.org/2000/svg">
<rect width="72" height="72" rx="36" fill="#F4F5F7"/>
<g clip-path="url(#clip0)">
<path d="M41.1927 31.2556L40.9121 31.6699V36.8941L35.9872 35.2285L31.0622 36.8941V31.6699L30.7844 31.2594C27.6586 31.7875 25.27 34.5134 25.27 37.7871C25.27 41.4377 28.24 44.4077 31.8907 44.4077H33.1693V48L38.4411 44.4077H40.1093C43.7599 44.4077 46.7299 41.4377 46.7299 37.7871C46.73 34.5054 44.3297 31.7742 41.1927 31.2556ZM33.4488 39.5617H31.9626V38.1554H33.4488V39.5617ZM36.7303 39.5617H35.244V38.1554H36.7303V39.5617ZM40.0117 39.5617H38.5255V38.1554H40.0117V39.5617Z" fill="#068CC9"/>
<path d="M32.4142 34.9961L35.9871 33.7943L39.56 34.9961L39.5211 31.2268L41.7681 28.2001L38.1712 27.0723L35.9871 24L33.803 27.0723L30.2061 28.2001L32.4532 31.2268L32.4142 34.9961Z" fill="#C95C06"/>
</g>
<defs>
<clipPath id="clip0">
<rect width="24" height="24" fill="white" transform="translate(24 24)"/>
</clipPath>
</defs>
</svg>
