<svg width="36" height="36" viewBox="0 0 36 36" fill="none" xmlns="http://www.w3.org/2000/svg">
<path d="M27.3876 6.14686C27.3876 5.30227 27.058 4.50717 26.4606 3.9098L23.4778 0.927C22.8888 0.337852 22.0525 0 21.2203 0H21.039V6.32812H27.3877L27.3876 6.14686Z" fill="#068CC9"/>
<path d="M19.2612 21.7643C19.4631 21.1515 19.8153 20.5809 20.2747 20.1184L27.4158 13.0061V8.4375H20.0048C19.4219 8.4375 18.9844 7.96577 18.9844 7.38281V0H3.16406C1.41933 0 0 1.41933 0 3.16406V32.8359C0 34.5807 1.41933 36 3.16406 36H24.2236C25.9683 36 27.4158 34.5807 27.4158 32.8359V24.9644L26.2567 26.0953C25.7871 26.5608 25.2371 26.8997 24.617 27.1067L21.2635 28.2263L20.7526 28.2542C19.908 28.2542 19.1088 27.8432 18.6124 27.1552C18.12 26.4703 17.9861 25.5824 18.2539 24.7801L19.2612 21.7643ZM5.27344 18.9844H15.7861C16.369 18.9844 16.8408 19.4561 16.8408 20.0391C16.8408 20.622 16.369 21.0938 15.7861 21.0938H5.27344C4.69048 21.0938 4.21875 20.622 4.21875 20.0391C4.21875 19.4561 4.69048 18.9844 5.27344 18.9844ZM4.21875 15.8203C4.21875 15.2374 4.69048 14.7656 5.27344 14.7656H15.7861C16.369 14.7656 16.8408 15.2374 16.8408 15.8203C16.8408 16.4033 16.369 16.875 15.7861 16.875H5.27344C4.69048 16.875 4.21875 16.4033 4.21875 15.8203ZM4.21875 24.2578C4.21875 23.6749 4.69048 23.2031 5.27344 23.2031H15.7861C16.369 23.2031 16.8408 23.6749 16.8408 24.2578C16.8408 24.8408 16.369 25.3125 15.7861 25.3125H5.27344C4.69048 25.3125 4.21875 24.8408 4.21875 24.2578ZM20.0048 29.5312C20.5878 29.5312 21.0595 30.003 21.0595 30.5859C21.0595 31.1689 20.5879 31.6406 20.0048 31.6406H13.6767C13.0937 31.6406 12.622 31.1689 12.622 30.5859C12.622 30.003 13.0937 29.5312 13.6767 29.5312H20.0048ZM5.27344 12.6562C4.69048 12.6562 4.21875 12.1845 4.21875 11.6016C4.21875 11.0186 4.69048 10.5469 5.27344 10.5469H20.0048C20.5878 10.5469 21.0595 11.0186 21.0595 11.6016C21.0595 12.1845 20.5878 12.6562 20.0048 12.6562H5.27344Z" fill="#068CC9"/>
<path d="M21.1719 22.6975L20.2543 25.4503C20.1168 25.8627 20.5092 26.2549 20.9216 26.1172L23.6728 25.1983L21.1719 22.6975Z" fill="#C95C06"/>
<path d="M29.3631 14.0138L22.417 20.9599L25.4127 23.9555C26.9826 22.3853 30.0374 19.3302 32.3585 17.0091L29.3631 14.0138Z" fill="#C95C06"/>
<path d="M35.3802 10.9887C35.0094 10.6159 34.4635 10.4027 33.8846 10.4027C33.3058 10.4027 32.7599 10.6159 32.3871 10.9898L30.8545 12.5224L33.8496 15.5175C34.6887 14.6784 35.2686 14.0985 35.3824 13.9848C36.2062 13.1597 36.2061 11.8157 35.3802 10.9887Z" fill="#C95C06"/>
</svg>
