<svg width="36" height="36" viewBox="0 0 36 36" fill="none" xmlns="http://www.w3.org/2000/svg">
<path d="M15.75 11.2494V8.99944H2.25C1.01025 8.99944 0 10.0097 0 11.2494V15.7494H16.2248C15.912 14.3747 15.75 12.8942 15.75 11.2494Z" fill="#068CC9"/>
<path d="M35.9077 20.2494C34.3732 22.6142 32.0332 24.6257 28.6807 26.5517C28.1655 26.8464 27.585 26.9994 27 26.9994C26.415 26.9994 25.8345 26.8464 25.326 26.5562C21.9735 24.6257 19.6335 22.6119 18.0968 20.2494H0V31.4994C0 32.7414 1.01025 33.7494 2.25 33.7494H33.75C34.992 33.7494 36 32.7414 36 31.4994V20.2494H35.9077ZM10.125 26.9994H5.625C5.004 26.9994 4.5 26.4954 4.5 25.8744C4.5 25.2534 5.004 24.7494 5.625 24.7494H10.125C10.746 24.7494 11.25 25.2534 11.25 25.8744C11.25 26.4954 10.746 26.9994 10.125 26.9994Z" fill="#068CC9"/>
<path d="M35.3182 5.71669L27.4432 2.34169C27.1575 2.22019 26.8403 2.22019 26.5545 2.34169L18.6795 5.71669C18.2678 5.89219 18 6.29944 18 6.74944V11.2494C18 17.4392 20.2883 21.0572 26.4398 24.6009C26.613 24.6999 26.8065 24.7494 27 24.7494C27.1935 24.7494 27.387 24.6999 27.5602 24.6009C33.7117 21.0662 36 17.4482 36 11.2494V6.74944C36 6.29944 35.7322 5.89219 35.3182 5.71669ZM31.2547 10.8287L26.7547 16.4537C26.5387 16.7192 26.2148 16.8744 25.875 16.8744C25.8593 16.8744 25.8413 16.8744 25.8278 16.8744C25.47 16.8587 25.1392 16.6742 24.939 16.3749L22.689 12.9999C22.3447 12.4824 22.4842 11.7849 23.0017 11.4407C23.5147 11.0987 24.2145 11.2337 24.561 11.7534L25.9582 13.8482L29.4953 9.42469C29.8845 8.94094 30.5933 8.86444 31.077 9.24919C31.563 9.63394 31.6395 10.3427 31.2547 10.8287Z" fill="#C95C06"/>
</svg>
