<svg width="36" height="36" viewBox="0 0 36 36" fill="none" xmlns="http://www.w3.org/2000/svg">
<path d="M36 14.3036C35.9972 11.8194 33.9842 9.8064 31.5 9.80357H19.2857C16.8015 9.8064 14.7885 11.8194 14.7857 14.3036V22.0179C14.7885 24.502 16.8015 26.515 19.2857 26.5179H23.1428C23.3133 26.5179 23.4768 26.5857 23.5974 26.7062L29.5714 32.6802V27.1607C29.5714 26.8057 29.8593 26.5179 30.2143 26.5179H31.5C33.9842 26.515 35.9972 24.502 36 22.0179V14.3036ZM32.7857 22.6607H18C17.645 22.6607 17.3571 22.3729 17.3571 22.0179C17.3571 21.6628 17.645 21.375 18 21.375H32.7857C33.1407 21.375 33.4286 21.6628 33.4286 22.0179C33.4286 22.3729 33.1407 22.6607 32.7857 22.6607ZM32.7857 18.8036H18C17.645 18.8036 17.3571 18.5157 17.3571 18.1607C17.3571 17.8057 17.645 17.5179 18 17.5179H32.7857C33.1407 17.5179 33.4286 17.8057 33.4286 18.1607C33.4286 18.5157 33.1407 18.8036 32.7857 18.8036ZM32.7857 14.9464H18C17.645 14.9464 17.3571 14.6586 17.3571 14.3036C17.3571 13.9486 17.645 13.6607 18 13.6607H32.7857C33.1407 13.6607 33.4286 13.9486 33.4286 14.3036C33.4286 14.6586 33.1407 14.9464 32.7857 14.9464Z" fill="#C95C06"/>
<path d="M11.1169 20.2776C11.2374 20.1571 11.401 20.0893 11.5714 20.0893H13.5V14.3036C13.5038 11.1097 16.0918 8.52162 19.2857 8.51786H21.2143V7.875C21.2115 5.39083 19.1985 3.37783 16.7143 3.375H4.5C2.01583 3.37783 0.00282505 5.39083 0 7.875V15.5893C0.00282505 18.0735 2.01583 20.0865 4.5 20.0893H5.78571C6.14073 20.0893 6.42857 20.3771 6.42857 20.7321V24.966L11.1169 20.2776ZM2.57143 7.23214H16.0714C16.4264 7.23214 16.7143 7.51998 16.7143 7.875C16.7143 8.23002 16.4264 8.51786 16.0714 8.51786H2.57143C2.21641 8.51786 1.92857 8.23002 1.92857 7.875C1.92857 7.51998 2.21641 7.23214 2.57143 7.23214ZM2.57143 11.0893H12.2143C12.5693 11.0893 12.8571 11.3771 12.8571 11.7321C12.8571 12.0872 12.5693 12.375 12.2143 12.375H2.57143C2.21641 12.375 1.92857 12.0872 1.92857 11.7321C1.92857 11.3771 2.21641 11.0893 2.57143 11.0893ZM2.57143 16.2321C2.21641 16.2321 1.92857 15.9443 1.92857 15.5893C1.92857 15.2343 2.21641 14.9464 2.57143 14.9464H11.5714C11.9264 14.9464 12.2143 15.2343 12.2143 15.5893C12.2143 15.9443 11.9264 16.2321 11.5714 16.2321H2.57143Z" fill="#068CC9"/>
</svg>
