<svg width="36" height="36" viewBox="0 0 36 36" fill="none" xmlns="http://www.w3.org/2000/svg">
<g clip-path="url(#clip0)">
<path d="M35.262 0.00448474C28.2345 -0.121515 20.22 3.55198 15.147 9.25049C10.299 9.34198 5.5785 11.3295 2.103 14.805C1.9005 15.0045 1.8285 15.303 1.917 15.573C2.007 15.8445 2.241 16.041 2.523 16.0815L8.304 16.9095L7.59 17.709C7.3245 18.006 7.338 18.4575 7.62 18.7395L17.2605 28.38C17.406 28.5255 17.598 28.599 17.7915 28.599C17.97 28.599 18.1485 28.536 18.291 28.4085L19.0905 27.6945L19.9185 33.4755C19.959 33.7575 20.181 33.9645 20.4495 34.0545C20.5185 34.077 20.5905 34.0875 20.664 34.0875C20.877 34.0875 21.0945 33.9945 21.2445 33.846C24.672 30.4185 26.6595 25.698 26.751 20.85C32.4555 15.7665 36.159 7.75499 35.9955 0.736485C35.985 0.337485 35.6625 0.0149847 35.262 0.00448474ZM28.35 12.9525C27.6195 13.683 26.6595 14.049 25.698 14.049C24.7365 14.049 23.7765 13.683 23.046 12.9525C21.585 11.49 21.585 9.11098 23.046 7.64849C24.5085 6.18599 26.8875 6.18599 28.35 7.64849C29.8125 9.11098 29.8125 11.4915 28.35 12.9525Z" fill="#068CC9"/>
<path d="M4.08599 25.3575C2.48099 26.9625 0.277491 34.2135 0.0314907 35.034C-0.0480093 35.298 0.0254907 35.5845 0.218991 35.7795C0.362991 35.9235 0.553491 36 0.749991 36C0.821991 36 0.893991 35.9895 0.965991 35.9685C1.78649 35.7225 9.03749 33.519 10.6425 31.914C12.45 30.1065 12.45 27.165 10.6425 25.3575C8.83349 23.55 5.89349 23.5515 4.08599 25.3575Z" fill="#C95C06"/>
</g>
<defs>
<clipPath id="clip0">
<rect width="36" height="36" fill="white"/>
</clipPath>
</defs>
</svg>
