<svg width="24" height="24" viewBox="0 0 24 24" fill="none" xmlns="http://www.w3.org/2000/svg">
<path d="M17.5034 0H6.49657C2.9143 0 0 2.9143 0 6.49657V17.5036C0 21.0857 2.9143 24 6.49657 24H17.5036C21.0857 24 24 21.0857 24 17.5036V6.49657C24 2.9143 21.0857 0 17.5034 0V0ZM12 18.5623C8.38145 18.5623 5.43767 15.6185 5.43767 12C5.43767 8.38145 8.38145 5.43767 12 5.43767C15.6185 5.43767 18.5623 8.38145 18.5623 12C18.5623 15.6185 15.6185 18.5623 12 18.5623ZM18.7192 6.98528C17.6499 6.98528 16.7801 6.11553 16.7801 5.04619C16.7801 3.97686 17.6499 3.10693 18.7192 3.10693C19.7885 3.10693 20.6585 3.97686 20.6585 5.04619C20.6585 6.11553 19.7885 6.98528 18.7192 6.98528Z" fill="#64B4D9"/>
<path d="M12 6.8446C9.15747 6.8446 6.84467 9.15722 6.84467 11.9999C6.84467 14.8425 9.15747 17.1553 12 17.1553C14.8427 17.1553 17.1553 14.8425 17.1553 11.9999C17.1553 9.15722 14.8427 6.8446 12 6.8446Z" fill="#64B4D9"/>
<path d="M18.7192 4.51404C18.4259 4.51404 18.1871 4.75281 18.1871 5.04614C18.1871 5.33948 18.4259 5.57825 18.7192 5.57825C19.0128 5.57825 19.2515 5.33966 19.2515 5.04614C19.2515 4.75262 19.0128 4.51404 18.7192 4.51404Z" fill="#64B4D9"/>
</svg>
