<svg width="72" height="72" viewBox="0 0 72 72" fill="none" xmlns="http://www.w3.org/2000/svg">
<rect width="72" height="72" rx="36" fill="#F4F5F7"/>
<path d="M30.2625 44.988H41.7465V42.948H33.5505L39.1185 37.944C39.7105 37.416 40.1985 36.92 40.5825 36.456C40.9745 35.984 41.2665 35.472 41.4585 34.92C41.6505 34.368 41.7465 33.716 41.7465 32.964C41.7465 31.9 41.4985 30.948 41.0025 30.108C40.5145 29.26 39.8465 28.592 38.9985 28.104C38.1505 27.608 37.1905 27.36 36.1185 27.36C35.0145 27.36 34.0265 27.6 33.1545 28.08C32.2825 28.552 31.5945 29.208 31.0905 30.048C30.5945 30.88 30.3465 31.84 30.3465 32.928H32.5305C32.5225 32.296 32.6705 31.716 32.9745 31.188C33.2865 30.652 33.7105 30.22 34.2465 29.892C34.7825 29.564 35.3945 29.4 36.0825 29.4C36.7465 29.4 37.3385 29.556 37.8585 29.868C38.3865 30.18 38.8025 30.604 39.1065 31.14C39.4105 31.676 39.5625 32.276 39.5625 32.94C39.5625 33.484 39.4505 34.016 39.2265 34.536C39.0105 35.056 38.5825 35.6 37.9425 36.168L30.2745 43.068L30.2625 44.988Z" fill="#1C313B"/>
</svg>
