<svg width="72" height="72" viewBox="0 0 72 72" fill="none" xmlns="http://www.w3.org/2000/svg">
<rect width="72" height="72" rx="36" fill="#F4F5F7"/>
<path d="M35.67 45.336C36.742 45.336 37.702 45.096 38.55 44.616C39.398 44.136 40.07 43.472 40.566 42.624C41.062 41.768 41.31 40.788 41.31 39.684C41.31 38.676 41.106 37.772 40.698 36.972C40.298 36.172 39.73 35.532 38.994 35.052C38.266 34.572 37.406 34.304 36.414 34.248L41.082 29.772V27.72H30.894V29.76H38.43L32.814 34.836L33.846 36.528C34.118 36.392 34.41 36.284 34.722 36.204C35.034 36.116 35.338 36.072 35.634 36.072C36.674 36.072 37.514 36.408 38.154 37.08C38.794 37.744 39.114 38.612 39.114 39.684C39.114 40.74 38.798 41.604 38.166 42.276C37.542 42.94 36.706 43.28 35.658 43.296C34.89 43.304 34.194 43.1 33.57 42.684C32.954 42.268 32.518 41.66 32.262 40.86L30.21 41.448C30.578 42.648 31.258 43.596 32.25 44.292C33.25 44.988 34.39 45.336 35.67 45.336Z" fill="#1C313B"/>
</svg>
